<svg xmlns="http://www.w3.org/2000/svg" viewBox="0 0 512 512">
  <defs>
    <linearGradient id="upper-ribbon" x1="0.18" y1="0" x2="0.02" y2="1">
      <stop offset="0" stop-color="#006C6A"/>
      <stop offset="0.34" stop-color="#008B87"/>
      <stop offset="0.67" stop-color="#65D2C4"/>
      <stop offset="1" stop-color="#006C6A"/>
    </linearGradient>
    <linearGradient id="lower-ribbon" x1="0.08" y1="0" x2="0.2" y2="1">
      <stop offset="0" stop-color="#D95542"/>
      <stop offset="0.28" stop-color="#FF735F"/>
      <stop offset="1" stop-color="#FF9B7A"/>
    </linearGradient>
    <linearGradient id="arrow-ribbon" x1="0" y1="1" x2="1" y2="0.18">
      <stop offset="0" stop-color="#F0D09B"/>
      <stop offset="1" stop-color="#D5A15D"/>
    </linearGradient>
  </defs>
  <g id="upper_teal_ribbon" transform="translate(11.636 512) scale(0.0581818 -0.0581818)">
    <path fill="url(#upper-ribbon)" d="M4069 6989c-31-4-110-21-175-37-66-16-141-34-169-40-153-31-499-142-630-202-38-18-131-60-205-93-74-34-164-77-200-96-36-19-101-52-145-74-44-21-87-45-95-52-8-7-35-24-60-37-25-13-46-32-48-42-4-17 1-19 51-13 30 3 66 12 79 20 12 9 52 23 88 32 36 9 96 28 134 41 38 13 110 31 159 40 49 8 124 26 166 39 42 14 126 32 186 40 61 8 142 20 180 26 119 17 292 22 475 11 275-16 430-49 600-129 110-52 250-199 285-300 26-72-5-246-61-344-61-109-168-234-258-302-28-21-76-62-106-91-63-61-529-376-556-376-6 0-39-20-74-45-35-25-68-45-73-45-4 0-43-21-85-47-42-26-111-64-152-85-41-21-100-54-130-73-30-18-84-51-119-72-35-21-93-57-128-80-35-24-67-43-71-43-17-1-166-100-245-162-47-36-96-72-109-79-12-7-77-55-143-108-66-53-140-111-165-128-103-72-271-254-349-378-24-39-57-88-72-111-87-128-159-346-179-543-19-192-15-229 41-409 39-125 96-228 115-210 4 4 6 72 5 151-1 100 3 166 14 218 9 41 24 115 35 164 23 111 90 249 200 413 106 159 330 378 505 493 104 68 177 115 205 129 14 7 41 25 60 40 19 15 55 33 79 39 24 7 60 23 80 36 20 13 56 31 81 41 25 9 52 23 60 30 9 7 47 25 85 39 39 15 80 33 92 41 12 7 86 41 165 74 79 33 178 79 221 100 43 22 85 40 93 40 8 0 32 9 54 20 46 23 288 122 344 140 22 7 65 26 97 41 32 16 61 29 66 29 11 0 353 168 498 245 112 59 260 154 395 254 30 22 66 48 80 57 31 21 210 204 210 215 0 5 20 33 45 64 50 61 101 169 147 309 22 68 31 118 35 196 5 96 2 117-27 230-51 200-101 288-231 406-191 174-321 234-719 335-66 16-111 19-375 18-165-1-325-5-356-10z"/>
  </g>
  <g id="lower_coral_ribbon" transform="translate(11.636 512) scale(0.0581818 -0.0581818)">
    <path fill="url(#lower-ribbon)" d="M4154 3819c-23-4-65-19-93-33-28-14-59-26-70-26-11 0-22-4-26-9-3-6-38-26-78-46-39-20-99-51-132-70-33-18-66-34-74-34-8-1-22-7-30-15-9-7-44-28-78-45-69-36-88-54-79-76 4-12 31-15 155-15 132 0 404-21 442-34 8-3 70-12 139-21 75-10 159-28 211-45 48-17 91-30 96-30 12 0 117-49 191-89 90-49 216-179 249-258 26-62 28-178 5-248-35-105-79-188-135-255-61-75-225-219-337-298-41-29-91-64-110-77-19-14-51-33-70-43-19-10-74-44-122-76-49-31-116-71-150-87-35-16-81-41-103-54-22-14-51-30-65-35-14-6-32-14-40-20-8-5-63-34-121-64-133-68-135-69-189-94-44-20-186-90-305-150-33-16-143-70-245-120-360-174-567-280-700-355-25-14-74-40-110-58-97-48-155-93-143-112 12-19 215 5 343 41 41 12 111 28 155 38 44 9 105 25 135 35 71 24 184 49 219 49 16 0 73 13 127 29 55 16 146 39 204 51 58 13 117 29 132 36 15 8 71 23 125 35 54 11 134 32 178 45 44 14 105 32 135 41 30 8 87 26 125 38 39 13 110 33 158 45 49 12 126 37 170 55 45 18 93 36 107 40 29 8 247 94 270 106 8 4 85 38 170 75 85 37 162 72 170 79 8 6 71 41 140 77 329 172 598 404 716 617 79 144 97 183 121 276 23 90 25 112 20 225-6 148-36 245-107 350-9 14-29 43-44 66-37 57-163 180-217 211-24 14-54 35-66 46-12 11-31 25-41 31-78 46-138 72-219 96-52 16-99 33-106 38-7 5-32 13-57 17-25 3-65 12-90 20-25 7-65 16-90 20-25 3-65 13-90 21-31 11-129 20-305 29-143 8-276 16-295 18-19 2-54 0-76-4z"/>
  </g>
  <g id="forward_gold_arrow">
    <path fill="url(#arrow-ribbon)" d="M160 354c42-50 98-80 163-99 27-7 49-11 71-11l-12 14c-22 1-43 6-63 15-56 16-104 45-145 84z"/>
    <g transform="translate(11.636 512) scale(0.0581818 -0.0581818)">
      <path fill="url(#arrow-ribbon)" d="M5977 4719c-13-8-14-16-3-61 7-29 18-63 24-75 20-37 14-50-41-81-49-27-60-30-115-25-49 5-75 1-124-17-47-17-81-22-141-21-83 2-263-29-326-55-19-8-66-21-104-29-38-8-102-30-141-50-40-19-81-35-92-34-10 1-43 1-72 1-46-2-57-7-88-37-19-19-45-35-57-35-37-1-152-35-152-45-1-6-7-27-14-48-14-42-9-67 13-67 10 0 13-6 10-15-5-13 6-15 70-15 64 0 82 4 114 24 42 28 103 50 177 64 110 21 174 40 230 70 27 14 76 21 335 51 41 5 95 16 120 26 25 9 88 21 140 26 52 4 127 11 165 15 79 7 125-6 125-34 0-10-16-47-35-82-38-72-44-114-17-129 20-11 38-5 197 64 265 114 336 146 420 195 50 29 112 59 138 67 45 13 127 74 127 94 0 18-115 68-265 115-44 14-102 34-130 45-85 32-145 47-275 69-69 11-141 24-161 29-20 5-43 4-52 0z"/>
    </g>
  </g>
</svg>
